<svg width="156" height="148" viewBox="0 0 156 148" fill="none" xmlns="http://www.w3.org/2000/svg">
<g filter="url(#filter0_i)">
<path fill-rule="evenodd" clip-rule="evenodd" d="M105.593 14.34C101.68 15.8557 100.751 19.7734 100.751 19.7734C100.751 19.7734 109.02 15.1043 132 17.9238C133.652 18.1293 125.201 -2.89814 124.8 0.338822C124.405 3.57579 109.506 12.8243 105.593 14.34ZM117.861 29.4522C124.593 29.4522 133.901 31.09 139.57 32.2268C137.346 25.8813 134.345 21.4562 131.836 20.4607C126.975 18.5339 105.101 19.1762 101.455 21.7452C100.137 22.6829 97.7673 27.1594 95.2883 32.5029C100.544 31.3726 110.57 29.4522 117.861 29.4522ZM142.244 45.3866C139.358 44.7315 125.273 41.6551 116.038 41.6551C106.894 41.6551 93.4595 44.6737 90.5005 45.3673C91.9648 41.8734 93.6539 37.9621 95.2883 34.4297C100.544 33.2993 110.57 31.379 117.861 31.379C124.593 31.379 133.901 33.0167 139.57 34.1535C140.725 37.4483 141.679 41.2633 142.244 45.3866ZM86.824 56.3C87.5393 54.4978 88.8844 51.1458 90.5004 47.2941C93.4595 46.6004 106.894 43.5818 116.038 43.5818C125.273 43.5818 139.358 46.6582 142.244 47.3133C142.669 50.3941 142.877 53.6538 142.795 56.9934C145.51 60.8523 147.063 65.3214 147.063 70.0851C147.063 72.8167 146.552 75.4514 145.605 77.9297C151.592 84.1091 155.228 92.2432 155.228 101.155C155.228 106.037 154.137 110.685 152.167 114.906C154.104 117.928 155.189 121.314 155.189 124.89C155.189 137.653 141.363 148 124.308 148C109.151 148 96.5448 139.828 93.9267 129.05C84.7354 122.658 78.8 112.541 78.8 101.155C78.8 93.9191 81.1971 87.196 85.3036 81.6156C83.2196 78.1315 82.0506 74.2192 82.0506 70.0851C82.0506 65.0333 83.7962 60.3128 86.824 56.3ZM20.832 35.24C22.176 35.144 23.488 34.952 24.768 34.664C26.048 34.344 27.024 33.864 27.696 33.224C28.4 32.552 28.752 31.656 28.752 30.536C28.752 29.416 28.464 27.944 27.888 26.12C27.344 24.296 26.576 23.384 25.584 23.384C25.232 23.384 24 23.72 21.888 24.392C19.808 25.032 18.368 25.352 17.568 25.352C16.448 25.352 15.536 24.712 14.832 23.432C14.16 22.152 13.824 20.36 13.824 18.056C13.824 15.752 14.208 13.976 14.976 12.728C15.776 11.48 16.736 10.856 17.856 10.856C18.592 10.856 19.984 11.112 22.032 11.624C24.08 12.136 25.264 12.392 25.584 12.392C26.64 12.392 27.44 11.512 27.984 9.752C28.56 7.992 28.848 6.536 28.848 5.384C28.848 4.232 28.544 3.352 27.936 2.744C27.328 2.136 26.64 1.688 25.872 1.4C24.176 0.760003 21.376 0.440003 17.472 0.440003C14.752 0.440003 12.048 1.048 9.36 2.264C7.696 3 6.208 3.976 4.896 5.192C3.616 6.40801 2.512 8.136 1.584 10.376C0.688 12.616 0.240002 15.192 0.240002 18.104C0.240002 22.456 1.056 26.008 2.688 28.76C3.392 29.944 4.256 30.968 5.28 31.832C6.336 32.696 7.328 33.352 8.256 33.8C9.184 34.248 10.208 34.6 11.328 34.856C12.448 35.112 13.344 35.272 14.016 35.336C14.72 35.4 15.696 35.432 16.944 35.432C18.224 35.432 19.52 35.368 20.832 35.24ZM43.98 34.472C44.908 34.12 45.404 33.48 45.468 32.552L45.708 29.864H50.316L50.652 32.984C50.78 34.328 53.676 35 59.34 35C61.996 35 63.772 34.648 64.668 33.944C65.052 33.624 65.244 33.304 65.244 32.984C65.244 32.664 62.22 22.456 56.172 2.36001C55.884 1.4 54.348 0.920003 51.564 0.920003C48.812 0.920003 46.22 1.064 43.788 1.352C41.388 1.608 40.108 1.944 39.948 2.36001C39.532 3.736 37.9 8.952 35.052 18.008C32.204 27.032 30.78 31.928 30.78 32.696C30.78 33.368 31.564 33.928 33.132 34.376C34.732 34.792 36.716 35 39.084 35C41.452 35 43.084 34.824 43.98 34.472ZM48.588 12.104L49.308 20.744H46.716L47.532 12.104H48.588ZM25.152 87.984C24.192 88.688 22.848 89.28 21.12 89.76C19.424 90.208 17.216 90.432 14.496 90.432C11.808 90.432 9.248 90.208 6.816 89.76C4.384 89.312 2.64 88.816 1.584 88.272C0.528 87.728 0 87.2 0 86.688C0 84.896 0.256001 83.04 0.768002 81.12C1.28 79.168 1.888 78.192 2.592 78.192C2.72 78.192 4.048 78.624 6.576 79.488C9.104 80.352 11.008 80.784 12.288 80.784C13.568 80.784 14.4 80.656 14.784 80.4C15.168 80.112 15.36 79.712 15.36 79.2C15.36 78.688 15.008 78.24 14.304 77.856C13.6 77.44 12.72 77.088 11.664 76.8C10.608 76.48 9.456 76.032 8.208 75.456C6.992 74.88 5.856 74.24 4.8 73.536C3.744 72.832 2.864 71.84 2.16 70.56C1.456 69.248 1.104 67.76 1.104 66.096C1.104 58.992 5.344 55.44 13.824 55.44C16.992 55.44 19.728 55.648 22.032 56.064C24.336 56.448 25.952 56.896 26.88 57.408C27.84 57.888 28.32 58.368 28.32 58.848C28.32 60.512 27.92 62.304 27.12 64.224C26.352 66.144 25.6 67.104 24.864 67.104C24.736 67.104 24.32 66.96 23.616 66.672C21.504 65.744 19.744 65.28 18.336 65.28C16.96 65.28 16.016 65.408 15.504 65.664C15.024 65.92 14.784 66.32 14.784 66.864C14.784 67.376 15.136 67.808 15.84 68.16C16.544 68.48 17.408 68.784 18.432 69.072C19.488 69.328 20.624 69.744 21.84 70.32C23.088 70.864 24.24 71.52 25.296 72.288C26.352 73.024 27.232 74.08 27.936 75.456C28.64 76.832 28.992 78.432 28.992 80.256C28.992 82.176 28.496 83.92 27.504 85.488C26.896 86.448 26.112 87.28 25.152 87.984ZM59.1503 86.976C61.8063 84.672 63.1342 81.216 63.1342 76.608V58.464C63.1342 58.048 62.9423 57.552 62.5583 56.976C62.0143 56.24 60.7343 55.872 58.7182 55.872C56.3503 55.872 54.2542 56.192 52.4303 56.832C50.6383 57.472 49.7422 58.192 49.7422 58.992V72.72C49.7422 76.432 49.6143 78.864 49.3582 80.016C49.1342 81.136 48.5742 81.696 47.6783 81.696C46.7822 81.696 46.1903 81.12 45.9023 79.968C45.6463 78.784 45.5182 76.384 45.5182 72.768V58.464C45.5182 58.048 45.3102 57.552 44.8943 56.976C44.3183 56.24 43.0703 55.872 41.1503 55.872C38.7503 55.872 36.6383 56.192 34.8143 56.832C33.0222 57.472 32.1263 58.192 32.1263 58.992V76.608C32.1263 81.216 33.4702 84.672 36.1582 86.976C38.8463 89.248 42.6862 90.384 47.6783 90.384C52.7022 90.384 56.5263 89.248 59.1503 86.976ZM4.752 145C3.152 145 2.08 144.92 1.536 144.76C0.992001 144.568 0.720001 144.264 0.720001 143.848V113.992C0.720001 113.288 1.648 112.6 3.504 111.928C5.36 111.224 7.44 110.872 9.744 110.872C11.792 110.872 13.136 111.304 13.776 112.168C14 112.488 14.112 112.808 14.112 113.128V134.392C18.016 134.136 20.96 134.008 22.944 134.008C23.616 134.008 23.952 135.08 23.952 137.224C23.952 139.336 23.808 141.16 23.52 142.696C23.232 144.232 22.848 145 22.368 145H4.752ZM36.1894 144.712C38.1094 145.192 40.3974 145.432 43.0534 145.432C48.2694 145.432 52.3974 143.976 55.4374 141.064C58.4774 138.152 59.9974 133.624 59.9974 127.48C59.9974 120.632 58.3174 115.992 54.9574 113.56C53.2934 112.376 51.5174 111.56 49.6294 111.112C47.7734 110.664 45.5814 110.44 43.0534 110.44C38.1574 110.44 34.1734 111.72 31.1014 114.28C29.5334 115.592 28.3014 117.368 27.4054 119.608C26.5414 121.848 26.1094 124.472 26.1094 127.48C26.1094 134.648 27.7254 139.496 30.9574 142.024C32.5574 143.304 34.3014 144.2 36.1894 144.712ZM43.0534 137.896C42.3814 137.896 41.8534 137.672 41.4694 137.224C41.0854 136.744 40.7654 135.752 40.5094 134.248C40.2534 132.712 40.1254 130.584 40.1254 127.864C40.1254 125.144 40.2534 123.048 40.5094 121.576C40.7654 120.104 41.0854 119.144 41.4694 118.696C41.8534 118.248 42.3814 118.024 43.0534 118.024C43.7254 118.024 44.2534 118.248 44.6374 118.696C45.0214 119.144 45.3414 120.104 45.5974 121.576C45.8534 123.048 45.9814 125.144 45.9814 127.864C45.9814 130.584 45.8534 132.712 45.5974 134.248C45.3414 135.752 45.0214 136.744 44.6374 137.224C44.2534 137.672 43.7254 137.896 43.0534 137.896Z" fill="#5F2EDB"/>
</g>
<defs>
<filter id="filter0_i" x="0" y="0" width="155.228" height="152" filterUnits="userSpaceOnUse" color-interpolation-filters="sRGB">
<feFlood flood-opacity="0" result="BackgroundImageFix"/>
<feBlend mode="normal" in="SourceGraphic" in2="BackgroundImageFix" result="shape"/>
<feColorMatrix in="SourceAlpha" type="matrix" values="0 0 0 0 0 0 0 0 0 0 0 0 0 0 0 0 0 0 127 0" result="hardAlpha"/>
<feOffset dy="4"/>
<feGaussianBlur stdDeviation="2"/>
<feComposite in2="hardAlpha" operator="arithmetic" k2="-1" k3="1"/>
<feColorMatrix type="matrix" values="0 0 0 0 0 0 0 0 0 0 0 0 0 0 0 0 0 0 0.25 0"/>
<feBlend mode="normal" in2="shape" result="effect1_innerShadow"/>
</filter>
</defs>
</svg>
