<svg width="58" height="58" viewBox="0 0 58 58" fill="none" xmlns="http://www.w3.org/2000/svg">
<g id="user">
<path id="Path 4" d="M13.2917 47.125C13.2917 47.125 21.75 43.5 24.1667 41.0833C26.5833 38.6667 19.3333 38.6667 19.3333 26.5833C19.3333 14.5 29 14.5 29 14.5C29 14.5 38.6667 14.5 38.6667 26.5833C38.6667 38.6667 31.4167 38.6667 33.8333 41.0833C36.25 43.5 44.7083 47.125 44.7083 47.125" stroke="#FF8B20" stroke-linecap="round"/>
<path id="Oval" fill-rule="evenodd" clip-rule="evenodd" d="M29 53.1667C42.3469 53.1667 53.1667 42.3469 53.1667 29C53.1667 15.6531 42.3469 4.83333 29 4.83333C15.6531 4.83333 4.83333 15.6531 4.83333 29C4.83333 42.3469 15.6531 53.1667 29 53.1667Z" stroke="#FF8B20"/>
</g>
</svg>
