<svg width="58" height="58" viewBox="0 0 58 58" fill="none" xmlns="http://www.w3.org/2000/svg">
<g id="user">
<path id="Path 4" d="M13.2917 47.125C13.2917 47.125 21.7501 43.5 24.1667 41.0833C26.5834 38.6667 19.3334 38.6667 19.3334 26.5833C19.3334 14.5 29.0001 14.5 29.0001 14.5C29.0001 14.5 38.6667 14.5 38.6667 26.5833C38.6667 38.6667 31.4167 38.6667 33.8334 41.0833C36.2501 43.5 44.7084 47.125 44.7084 47.125" stroke="#2329D6" stroke-linecap="round"/>
<path id="Oval" fill-rule="evenodd" clip-rule="evenodd" d="M28.9999 53.1667C42.3468 53.1667 53.1666 42.3469 53.1666 29C53.1666 15.6531 42.3468 4.83333 28.9999 4.83333C15.653 4.83333 4.83325 15.6531 4.83325 29C4.83325 42.3469 15.653 53.1667 28.9999 53.1667Z" stroke="#2329D6"/>
</g>
</svg>
